<mxfile host="app.diagrams.net" modified="2023-12-10T14:07:48.597Z" agent="Mozilla/5.0 (Windows NT 10.0; Win64; x64) AppleWebKit/537.36 (KHTML, like Gecko) Chrome/120.0.0.0 Safari/537.36" etag="0jTfST7LaxwDVeu5Qna5" version="22.1.7" type="device">
  <diagram name="Page-1" id="8378b5f6-a2b2-b727-a746-972ab9d02e00">
    <mxGraphModel dx="1050" dy="574" grid="1" gridSize="10" guides="1" tooltips="1" connect="0" arrows="1" fold="1" page="1" pageScale="1.5" pageWidth="1169" pageHeight="827" background="none" math="0" shadow="0">
      <root>
        <mxCell id="0" />
        <mxCell id="1" parent="0" />
        <mxCell id="63" value="0" style="strokeColor=#DEEDFF;fillColor=#ADC3D9" parent="1" vertex="1">
          <mxGeometry x="250" y="380" width="40" height="20" as="geometry" />
        </mxCell>
        <mxCell id="64" value="Весь проект" style="align=left;strokeColor=#DEEDFF;fillColor=#ADC3D9" parent="1" vertex="1">
          <mxGeometry x="290" y="380" width="156.5" height="20" as="geometry" />
        </mxCell>
        <mxCell id="65" value="70 Днів" style="strokeColor=#DEEDFF;fillColor=#ADC3D9" parent="1" vertex="1">
          <mxGeometry x="446.50000000000176" y="380" width="80.00000000000028" height="20" as="geometry" />
        </mxCell>
        <mxCell id="66" value="14.11.2003" style="strokeColor=#DEEDFF;fillColor=#ADC3D9" parent="1" vertex="1">
          <mxGeometry x="526.500000000002" y="380" width="80.00000000000028" height="20" as="geometry" />
        </mxCell>
        <mxCell id="67" value="17.01.2004" style="strokeColor=#DEEDFF;fillColor=#ADC3D9" parent="1" vertex="1">
          <mxGeometry x="606.5000000000016" y="380.0000000000002" width="80.00000000000028" height="20" as="geometry" />
        </mxCell>
        <mxCell id="69" value="1" style="strokeColor=#DEEDFF;fillColor=#CCE5FF" parent="1" vertex="1">
          <mxGeometry x="250.00000000000026" y="399.9999999999999" width="40" height="20" as="geometry" />
        </mxCell>
        <mxCell id="70" value="Формування вимог" style="align=left;strokeColor=#DEEDFF;fillColor=#CCE5FF" parent="1" vertex="1">
          <mxGeometry x="290" y="400" width="156.5" height="20" as="geometry" />
        </mxCell>
        <mxCell id="71" value="7 Днів" style="strokeColor=#DEEDFF;fillColor=#CCE5FF" parent="1" vertex="1">
          <mxGeometry x="446.500000000002" y="399.99999999999983" width="80.00000000000028" height="20" as="geometry" />
        </mxCell>
        <mxCell id="72" value="14.11.2003" style="strokeColor=#DEEDFF;fillColor=#CCE5FF" parent="1" vertex="1">
          <mxGeometry x="526.5000000000023" y="399.99999999999983" width="80.00000000000028" height="20" as="geometry" />
        </mxCell>
        <mxCell id="73" value="20.11.2003" style="strokeColor=#DEEDFF;fillColor=#CCE5FF" parent="1" vertex="1">
          <mxGeometry x="606.5000000000018" y="400.0000000000001" width="80.00000000000028" height="20" as="geometry" />
        </mxCell>
        <mxCell id="74" value="2" style="strokeColor=#DEEDFF" parent="1" vertex="1">
          <mxGeometry x="250.00000000000028" y="419.9999999999998" width="40" height="20" as="geometry" />
        </mxCell>
        <mxCell id="75" value="Проектування" style="align=left;strokeColor=#DEEDFF" parent="1" vertex="1">
          <mxGeometry x="290" y="420" width="156.5" height="20" as="geometry" />
        </mxCell>
        <mxCell id="76" value="25 Днів" style="strokeColor=#DEEDFF" parent="1" vertex="1">
          <mxGeometry x="446.500000000002" y="419.9999999999997" width="80.00000000000028" height="20" as="geometry" />
        </mxCell>
        <mxCell id="77" value="20.11.2003" style="strokeColor=#DEEDFF" parent="1" vertex="1">
          <mxGeometry x="526.5000000000023" y="419.9999999999997" width="80.00000000000028" height="20" as="geometry" />
        </mxCell>
        <mxCell id="78" value="14.12.2003" style="strokeColor=#DEEDFF" parent="1" vertex="1">
          <mxGeometry x="606.5000000000018" y="420" width="80.00000000000028" height="20" as="geometry" />
        </mxCell>
        <mxCell id="79" value="3" style="strokeColor=#DEEDFF" parent="1" vertex="1">
          <mxGeometry x="250" y="440.00000000000017" width="40" height="20" as="geometry" />
        </mxCell>
        <mxCell id="80" value="Реалізація" style="align=left;strokeColor=#DEEDFF" parent="1" vertex="1">
          <mxGeometry x="290" y="440" width="156.5" height="20" as="geometry" />
        </mxCell>
        <mxCell id="81" value="20 Днів" style="strokeColor=#DEEDFF" parent="1" vertex="1">
          <mxGeometry x="446.5000000000017" y="440.0000000000001" width="80.00000000000028" height="20" as="geometry" />
        </mxCell>
        <mxCell id="82" value="14.12.2003" style="strokeColor=#DEEDFF" parent="1" vertex="1">
          <mxGeometry x="526.500000000002" y="440.0000000000001" width="80.00000000000028" height="20" as="geometry" />
        </mxCell>
        <mxCell id="83" value="2.01.2004" style="strokeColor=#DEEDFF" parent="1" vertex="1">
          <mxGeometry x="606.5000000000015" y="440.0000000000004" width="80.00000000000028" height="20" as="geometry" />
        </mxCell>
        <mxCell id="84" value="4" style="strokeColor=#DEEDFF" parent="1" vertex="1">
          <mxGeometry x="249.99999999999991" y="460.00000000000017" width="40" height="20" as="geometry" />
        </mxCell>
        <mxCell id="85" value="Тестування" style="align=left;strokeColor=#DEEDFF" parent="1" vertex="1">
          <mxGeometry x="290" y="460" width="156.5" height="20" as="geometry" />
        </mxCell>
        <mxCell id="86" value="4 Дні" style="strokeColor=#DEEDFF" parent="1" vertex="1">
          <mxGeometry x="446.50000000000165" y="460.0000000000001" width="80.00000000000028" height="20" as="geometry" />
        </mxCell>
        <mxCell id="87" value="2.01.2004" style="strokeColor=#DEEDFF" parent="1" vertex="1">
          <mxGeometry x="526.5000000000019" y="460.0000000000001" width="80.00000000000028" height="20" as="geometry" />
        </mxCell>
        <mxCell id="88" value="5.01.2004" style="strokeColor=#DEEDFF" parent="1" vertex="1">
          <mxGeometry x="606.5000000000015" y="460.0000000000004" width="80.00000000000028" height="20" as="geometry" />
        </mxCell>
        <mxCell id="89" value="5" style="strokeColor=#DEEDFF" parent="1" vertex="1">
          <mxGeometry x="249.9999999999999" y="480.00000000000045" width="40" height="20" as="geometry" />
        </mxCell>
        <mxCell id="90" value="Впровадження" style="align=left;strokeColor=#DEEDFF" parent="1" vertex="1">
          <mxGeometry x="290" y="480" width="156.5" height="20" as="geometry" />
        </mxCell>
        <mxCell id="91" value="2 Дні" style="strokeColor=#DEEDFF" parent="1" vertex="1">
          <mxGeometry x="446.50000000000165" y="480.00000000000034" width="80.00000000000028" height="20" as="geometry" />
        </mxCell>
        <mxCell id="92" value="5.01.2004" style="strokeColor=#DEEDFF" parent="1" vertex="1">
          <mxGeometry x="526.5000000000019" y="480.00000000000034" width="80.00000000000028" height="20" as="geometry" />
        </mxCell>
        <mxCell id="93" value="6.01.2004" style="strokeColor=#DEEDFF" parent="1" vertex="1">
          <mxGeometry x="606.5000000000015" y="480.0000000000007" width="80.00000000000028" height="20" as="geometry" />
        </mxCell>
        <mxCell id="94" value="6" style="strokeColor=#DEEDFF" parent="1" vertex="1">
          <mxGeometry x="250.00000000000063" y="500.0000000000007" width="40" height="20" as="geometry" />
        </mxCell>
        <mxCell id="95" value="Експлуатація та супровід" style="align=left;strokeColor=#DEEDFF" parent="1" vertex="1">
          <mxGeometry x="290" y="500" width="156.5" height="20" as="geometry" />
        </mxCell>
        <mxCell id="96" value="12 Днів" style="strokeColor=#DEEDFF" parent="1" vertex="1">
          <mxGeometry x="446.5000000000024" y="500.0000000000007" width="80.00000000000028" height="20" as="geometry" />
        </mxCell>
        <mxCell id="97" value="6.01.2004" style="strokeColor=#DEEDFF" parent="1" vertex="1">
          <mxGeometry x="526.5000000000027" y="500.0000000000007" width="80.00000000000028" height="20" as="geometry" />
        </mxCell>
        <mxCell id="98" value="17.01.2004" style="strokeColor=#DEEDFF" parent="1" vertex="1">
          <mxGeometry x="606.5000000000022" y="500.0000000000009" width="80.00000000000028" height="20" as="geometry" />
        </mxCell>
        <mxCell id="196" value="" style="strokeColor=#DEEDFF;strokeWidth=0;" parent="1" vertex="1">
          <mxGeometry x="706.5" y="380" width="20" height="140" as="geometry" />
        </mxCell>
        <mxCell id="197" value="" style="strokeColor=none;fillColor=#dae8fc;" parent="1" vertex="1">
          <mxGeometry x="726.5" y="380" width="20" height="140" as="geometry" />
        </mxCell>
        <mxCell id="198" value="" style="strokeColor=none;" parent="1" vertex="1">
          <mxGeometry x="746.5" y="380" width="20" height="140" as="geometry" />
        </mxCell>
        <mxCell id="199" value="" style="strokeColor=none;fillColor=#D4E1FF" parent="1" vertex="1">
          <mxGeometry x="766.5" y="380" width="20" height="140" as="geometry" />
        </mxCell>
        <mxCell id="200" value="" style="strokeColor=none;" parent="1" vertex="1">
          <mxGeometry x="786.5" y="380" width="20" height="140" as="geometry" />
        </mxCell>
        <mxCell id="201" value="" style="strokeColor=none;fillColor=#dae8fc;" parent="1" vertex="1">
          <mxGeometry x="806.5" y="380" width="20" height="140" as="geometry" />
        </mxCell>
        <mxCell id="202" value="" style="strokeColor=none;" parent="1" vertex="1">
          <mxGeometry x="826.5" y="380" width="20" height="140" as="geometry" />
        </mxCell>
        <mxCell id="203" value="" style="strokeColor=none;fillColor=#dae8fc;" parent="1" vertex="1">
          <mxGeometry x="846.5" y="380" width="20" height="140" as="geometry" />
        </mxCell>
        <mxCell id="204" value="" style="strokeColor=none;" parent="1" vertex="1">
          <mxGeometry x="866.5" y="380" width="20" height="140" as="geometry" />
        </mxCell>
        <mxCell id="205" value="" style="strokeColor=none;fillColor=#D4E1FF" parent="1" vertex="1">
          <mxGeometry x="886.5" y="380" width="20" height="140" as="geometry" />
        </mxCell>
        <mxCell id="206" value="" style="strokeWidth=0;strokeColor=none;" parent="1" vertex="1">
          <mxGeometry x="906.5" y="380" width="20" height="140" as="geometry" />
        </mxCell>
        <mxCell id="207" value="" style="strokeColor=none;fillColor=#dae8fc;" parent="1" vertex="1">
          <mxGeometry x="926.5" y="380" width="20" height="140" as="geometry" />
        </mxCell>
        <mxCell id="208" value="" style="strokeColor=none;strokeWidth=0;" parent="1" vertex="1">
          <mxGeometry x="946.5" y="380" width="20" height="140" as="geometry" />
        </mxCell>
        <mxCell id="209" value="" style="strokeColor=none;fillColor=#dae8fc;" parent="1" vertex="1">
          <mxGeometry x="966.5" y="380" width="20" height="140" as="geometry" />
        </mxCell>
        <mxCell id="210" value="" style="strokeColor=none;strokeWidth=0;" parent="1" vertex="1">
          <mxGeometry x="986.5" y="380" width="20" height="140" as="geometry" />
        </mxCell>
        <mxCell id="2" value="Назва завдання" style="fillColor=#23445D;strokeColor=#FFFFFF;strokeWidth=2;fontColor=#FFFFFF;fontStyle=1" parent="1" vertex="1">
          <mxGeometry x="290" y="340" width="156.5" height="40" as="geometry" />
        </mxCell>
        <mxCell id="3" value="Код" style="fillColor=#23445D;strokeColor=#FFFFFF;strokeWidth=2;fontColor=#FFFFFF;fontStyle=1" parent="1" vertex="1">
          <mxGeometry x="250" y="340" width="40" height="40" as="geometry" />
        </mxCell>
        <mxCell id="4" value="Листопад " style="fillColor=#23445D;strokeColor=#FFFFFF;strokeWidth=2;fontColor=#FFFFFF;fontStyle=1;fontSize=12;" parent="1" vertex="1">
          <mxGeometry x="687" y="360" width="103" height="20" as="geometry" />
        </mxCell>
        <mxCell id="12" value="Тривалість" style="fillColor=#23445D;strokeColor=#FFFFFF;strokeWidth=2;fontColor=#FFFFFF;fontStyle=1" parent="1" vertex="1">
          <mxGeometry x="446.50000000000176" y="340.00000000000006" width="80.00000000000006" height="40.00000000000001" as="geometry" />
        </mxCell>
        <mxCell id="13" value="Початок" style="fillColor=#23445D;strokeColor=#FFFFFF;strokeWidth=2;fontColor=#FFFFFF;fontStyle=1" parent="1" vertex="1">
          <mxGeometry x="526.5000000000018" y="340.00000000000006" width="80.00000000000006" height="40.00000000000001" as="geometry" />
        </mxCell>
        <mxCell id="14" value="Кінець" style="fillColor=#23445D;strokeColor=#FFFFFF;strokeWidth=2;fontColor=#FFFFFF;fontStyle=1" parent="1" vertex="1">
          <mxGeometry x="606.5000000000019" y="340.0000000000001" width="80.00000000000006" height="40.00000000000001" as="geometry" />
        </mxCell>
        <mxCell id="15" value="Грудень" style="fillColor=#23445D;strokeColor=#FFFFFF;strokeWidth=2;fontColor=#FFFFFF;fontStyle=1" parent="1" vertex="1">
          <mxGeometry x="790.0000000000018" y="360.0000000000001" width="140" height="20" as="geometry" />
        </mxCell>
        <mxCell id="23" value="Січень" style="fillColor=#23445D;strokeColor=#FFFFFF;strokeWidth=2;fontColor=#FFFFFF;fontStyle=1" parent="1" vertex="1">
          <mxGeometry x="930" y="360" width="80" height="20" as="geometry" />
        </mxCell>
        <mxCell id="242" value="" style="shape=mxgraph.flowchart.process;fillColor=#AE4132;strokeColor=#000000;strokeWidth=0;opacity=50" parent="1" vertex="1">
          <mxGeometry x="710" y="400" width="30" height="20" as="geometry" />
        </mxCell>
        <mxCell id="243" value="" style="shape=mxgraph.arrows.bent_right_arrow;fillColor=#AE4132;strokeColor=none;strokeWidth=2;direction=south" parent="1" vertex="1">
          <mxGeometry x="740.000000000002" y="409.99999999999966" width="10.000000000000341" height="9.99999999999983" as="geometry" />
        </mxCell>
        <mxCell id="244" value="" style="shape=mxgraph.flowchart.process;fillColor=#AE4132;strokeColor=none;strokeWidth=2;opacity=50" parent="1" vertex="1">
          <mxGeometry x="740" y="420" width="110" height="20" as="geometry" />
        </mxCell>
        <mxCell id="245" value="" style="shape=mxgraph.flowchart.process;fillColor=#AE4132;strokeColor=none;strokeWidth=2;opacity=50" parent="1" vertex="1">
          <mxGeometry x="850" y="440" width="80" height="20" as="geometry" />
        </mxCell>
        <mxCell id="246" value="" style="shape=mxgraph.flowchart.process;fillColor=#AE4132;strokeColor=none;strokeWidth=2;opacity=50" parent="1" vertex="1">
          <mxGeometry x="930" y="460" width="10" height="20" as="geometry" />
        </mxCell>
        <mxCell id="247" value="" style="shape=mxgraph.flowchart.process;fillColor=#AE4132;strokeColor=none;strokeWidth=2;opacity=50" parent="1" vertex="1">
          <mxGeometry x="950" y="500" width="40" height="20" as="geometry" />
        </mxCell>
        <mxCell id="249" value="" style="shape=mxgraph.arrows.bent_right_arrow;fillColor=#AE4132;strokeColor=none;strokeWidth=2;direction=south" parent="1" vertex="1">
          <mxGeometry x="850.000000000001" y="429.99999999999943" width="10.000000000000341" height="9.99999999999983" as="geometry" />
        </mxCell>
        <mxCell id="250" value="" style="shape=mxgraph.arrows.bent_right_arrow;fillColor=#AE4132;strokeColor=none;strokeWidth=2;direction=south" parent="1" vertex="1">
          <mxGeometry x="930.0000000000007" y="450.0000000000001" width="10.000000000000341" height="9.99999999999983" as="geometry" />
        </mxCell>
        <mxCell id="252" value="" style="shape=mxgraph.flowchart.process;fillColor=#AE4132;strokeColor=none;strokeWidth=2;opacity=50" parent="1" vertex="1">
          <mxGeometry x="940" y="480" width="10" height="20" as="geometry" />
        </mxCell>
        <mxCell id="253" value="" style="shape=mxgraph.arrows.bent_right_arrow;fillColor=#AE4132;strokeColor=none;strokeWidth=2;direction=south" parent="1" vertex="1">
          <mxGeometry x="950.000000000002" y="489.99999999999983" width="10.000000000000341" height="9.99999999999983" as="geometry" />
        </mxCell>
        <mxCell id="254" value="" style="shape=mxgraph.flowchart.process;fillColor=#AE4132;strokeColor=#000000;strokeWidth=0;opacity=100" parent="1" vertex="1">
          <mxGeometry x="710" y="380" width="280" height="20" as="geometry" />
        </mxCell>
        <mxCell id="JGSnnsPd12XAG29GYUIS-279" value="2003" style="fillColor=#23445D;strokeColor=#FFFFFF;strokeWidth=2;fontColor=#FFFFFF;fontStyle=1" vertex="1" parent="1">
          <mxGeometry x="687" y="340" width="243" height="20" as="geometry" />
        </mxCell>
        <mxCell id="JGSnnsPd12XAG29GYUIS-280" value="2004" style="fillColor=#23445D;strokeColor=#FFFFFF;strokeWidth=2;fontColor=#FFFFFF;fontStyle=1" vertex="1" parent="1">
          <mxGeometry x="930" y="340" width="80" height="20" as="geometry" />
        </mxCell>
        <mxCell id="JGSnnsPd12XAG29GYUIS-281" value="" style="shape=mxgraph.arrows.bent_right_arrow;fillColor=#AE4132;strokeColor=none;strokeWidth=2;direction=south" vertex="1" parent="1">
          <mxGeometry x="940.000000000002" y="469.99999999999983" width="10.000000000000341" height="9.99999999999983" as="geometry" />
        </mxCell>
        <mxCell id="JGSnnsPd12XAG29GYUIS-282" value="" style="strokeColor=#6c8ebf;strokeWidth=0;fillColor=#dae8fc;" vertex="1" parent="1">
          <mxGeometry x="686.5" y="380" width="20" height="140" as="geometry" />
        </mxCell>
        <mxCell id="JGSnnsPd12XAG29GYUIS-283" value="" style="rounded=0;whiteSpace=wrap;html=1;fillColor=#ffe6cc;strokeColor=#d79b00;" vertex="1" parent="1">
          <mxGeometry x="250" y="650" width="80" height="30" as="geometry" />
        </mxCell>
        <mxCell id="JGSnnsPd12XAG29GYUIS-284" value="" style="rounded=0;whiteSpace=wrap;html=1;fillColor=#ffe6cc;strokeColor=#d79b00;" vertex="1" parent="1">
          <mxGeometry x="290" y="690" width="80" height="30" as="geometry" />
        </mxCell>
        <mxCell id="JGSnnsPd12XAG29GYUIS-285" value="" style="rounded=0;whiteSpace=wrap;html=1;fillColor=#ffe6cc;strokeColor=#d79b00;" vertex="1" parent="1">
          <mxGeometry x="410" y="810" width="80" height="30" as="geometry" />
        </mxCell>
        <mxCell id="JGSnnsPd12XAG29GYUIS-286" value="" style="rounded=0;whiteSpace=wrap;html=1;fillColor=#ffe6cc;strokeColor=#d79b00;" vertex="1" parent="1">
          <mxGeometry x="330" y="730" width="80" height="30" as="geometry" />
        </mxCell>
        <mxCell id="JGSnnsPd12XAG29GYUIS-287" value="" style="rounded=0;whiteSpace=wrap;html=1;fillColor=#ffe6cc;strokeColor=#d79b00;" vertex="1" parent="1">
          <mxGeometry x="370" y="770" width="80" height="30" as="geometry" />
        </mxCell>
        <mxCell id="JGSnnsPd12XAG29GYUIS-288" value="" style="rounded=0;whiteSpace=wrap;html=1;fillColor=#ffe6cc;strokeColor=#d79b00;" vertex="1" parent="1">
          <mxGeometry x="450" y="850" width="81.5" height="30" as="geometry" />
        </mxCell>
        <mxCell id="JGSnnsPd12XAG29GYUIS-290" value="" style="shape=mxgraph.arrows.bent_right_arrow;fillColor=#ffe6cc;strokeColor=#d79b00;strokeWidth=1;direction=south" vertex="1" parent="1">
          <mxGeometry x="330" y="660" width="30" height="30" as="geometry" />
        </mxCell>
        <mxCell id="JGSnnsPd12XAG29GYUIS-291" value="" style="shape=mxgraph.arrows.bent_right_arrow;fillColor=#ffe6cc;strokeColor=#d79b00;strokeWidth=1;direction=south" vertex="1" parent="1">
          <mxGeometry x="450" y="780" width="30" height="30" as="geometry" />
        </mxCell>
        <mxCell id="JGSnnsPd12XAG29GYUIS-292" value="" style="shape=mxgraph.arrows.bent_right_arrow;fillColor=#ffe6cc;strokeColor=#d79b00;strokeWidth=1;direction=south" vertex="1" parent="1">
          <mxGeometry x="410" y="740" width="30" height="30" as="geometry" />
        </mxCell>
        <mxCell id="JGSnnsPd12XAG29GYUIS-293" value="" style="shape=mxgraph.arrows.bent_right_arrow;fillColor=#ffe6cc;strokeColor=#d79b00;strokeWidth=1;direction=south" vertex="1" parent="1">
          <mxGeometry x="370" y="700" width="30" height="30" as="geometry" />
        </mxCell>
        <mxCell id="JGSnnsPd12XAG29GYUIS-294" value="" style="shape=mxgraph.arrows.bent_right_arrow;fillColor=#ffe6cc;strokeColor=#d79b00;strokeWidth=1;direction=south" vertex="1" parent="1">
          <mxGeometry x="490" y="820" width="30" height="30" as="geometry" />
        </mxCell>
        <mxCell id="JGSnnsPd12XAG29GYUIS-295" value="" style="rounded=0;whiteSpace=wrap;html=1;fillColor=#dae8fc;strokeColor=#6c8ebf;" vertex="1" parent="1">
          <mxGeometry x="370" y="605" width="120" height="30" as="geometry" />
        </mxCell>
        <mxCell id="JGSnnsPd12XAG29GYUIS-296" value="Життєвий цикл ПЗ" style="text;html=1;strokeColor=none;fillColor=none;align=center;verticalAlign=middle;whiteSpace=wrap;rounded=0;" vertex="1" parent="1">
          <mxGeometry x="375" y="605" width="110" height="30" as="geometry" />
        </mxCell>
        <mxCell id="JGSnnsPd12XAG29GYUIS-297" value="Фомування вимог" style="text;html=1;strokeColor=none;fillColor=none;align=center;verticalAlign=middle;whiteSpace=wrap;rounded=0;" vertex="1" parent="1">
          <mxGeometry x="250" y="650" width="80" height="30" as="geometry" />
        </mxCell>
        <mxCell id="JGSnnsPd12XAG29GYUIS-298" value="Проектування" style="text;html=1;strokeColor=none;fillColor=none;align=center;verticalAlign=middle;whiteSpace=wrap;rounded=0;" vertex="1" parent="1">
          <mxGeometry x="290" y="690" width="80" height="30" as="geometry" />
        </mxCell>
        <mxCell id="JGSnnsPd12XAG29GYUIS-299" value="Реалізація" style="text;html=1;strokeColor=none;fillColor=none;align=center;verticalAlign=middle;whiteSpace=wrap;rounded=0;" vertex="1" parent="1">
          <mxGeometry x="330" y="730" width="80" height="30" as="geometry" />
        </mxCell>
        <mxCell id="JGSnnsPd12XAG29GYUIS-300" value="Тестування" style="text;html=1;strokeColor=none;fillColor=none;align=center;verticalAlign=middle;whiteSpace=wrap;rounded=0;" vertex="1" parent="1">
          <mxGeometry x="370" y="770" width="80" height="30" as="geometry" />
        </mxCell>
        <mxCell id="JGSnnsPd12XAG29GYUIS-301" value="Впровадження" style="text;html=1;strokeColor=none;fillColor=none;align=center;verticalAlign=middle;whiteSpace=wrap;rounded=0;" vertex="1" parent="1">
          <mxGeometry x="410" y="810" width="80" height="30" as="geometry" />
        </mxCell>
        <mxCell id="JGSnnsPd12XAG29GYUIS-302" value="Експлуатація та супровід" style="text;html=1;strokeColor=none;fillColor=none;align=center;verticalAlign=middle;whiteSpace=wrap;rounded=0;" vertex="1" parent="1">
          <mxGeometry x="450" y="850" width="80" height="30" as="geometry" />
        </mxCell>
      </root>
    </mxGraphModel>
  </diagram>
</mxfile>
